<?xml version="1.0" encoding="UTF-8"?>
<svg xmlns="http://www.w3.org/2000/svg" xmlns:xlink="http://www.w3.org/1999/xlink" width="244.104pt" height="244.171pt" viewBox="0 0 244.104 244.171" version="1.1">
<defs>
<clipPath id="clip1">
  <path d="M 171 171 L 244.105469 171 L 244.105469 244.171875 L 171 244.171875 Z M 171 171 "/>
</clipPath>
</defs>
<g id="surface1">
<path style=" stroke:none;fill-rule:nonzero;fill:rgb(94.999695%,94.999695%,94.999695%);fill-opacity:1;" d="M 101.917969 21.101562 C 57.453125 21.183594 21.121094 57.550781 21.105469 101.988281 C 21.09375 146.355469 57.414062 182.765625 101.890625 182.96875 C 146.292969 183.175781 183.097656 146.300781 182.953125 101.761719 C 182.808594 57.316406 146.34375 21.019531 101.917969 21.101562 M 101.902344 0 C 157.722656 -0.132812 203.890625 45.453125 204.058594 100.867188 C 204.234375 157.972656 158.867188 203.925781 102.160156 204.074219 C 45.808594 204.222656 0.078125 158.363281 0 101.625 C -0.078125 45.828125 45.742188 0.132812 101.902344 0 "/>
<g clip-path="url(#clip1)" clip-rule="nonzero">
<path style=" stroke:none;fill-rule:nonzero;fill:rgb(94.999695%,94.999695%,94.999695%);fill-opacity:1;" d="M 171.542969 199.910156 C 180.960938 190.488281 190.363281 181.078125 199.96875 171.464844 C 200.238281 171.632812 200.867188 171.871094 201.300781 172.304688 C 213.328125 184.296875 225.363281 196.28125 237.335938 208.328125 C 243.164062 214.191406 245.601562 221.136719 243.167969 229.296875 C 240.878906 236.960938 235.664062 241.761719 227.933594 243.566406 C 221.164062 245.148438 214.839844 243.652344 209.902344 238.753906 C 197.035156 225.976562 184.402344 212.960938 171.542969 199.910156 "/>
</g>
</g>
</svg>
